<svg width="27" height="27" viewBox="0 0 27 27" fill="none" xmlns="http://www.w3.org/2000/svg">
<g id="Group 51">
<path id="Vector" d="M6.55556 9.33333C5.08213 9.33333 3.66905 9.91865 2.62718 10.9605C1.58532 12.0024 1 13.4155 1 14.8889V23.2222C1 23.9589 1.29266 24.6655 1.81359 25.1864C2.33453 25.7073 3.04107 26 3.77778 26H23.2222C23.9589 26 24.6655 25.7073 25.1864 25.1864C25.7073 24.6655 26 23.9589 26 23.2222V14.8889C26 13.4155 25.4147 12.0024 24.3728 10.9605C23.3309 9.91865 21.9179 9.33333 20.4444 9.33333M6.55556 9.33333H20.4444M6.55556 9.33333V5.16667M20.4444 9.33333V5.16667M13.5 5.16667V9.33333M13.5 1H13.5139M6.55556 1H6.56944M20.4444 1H20.4583" stroke="#373737" stroke-width="1.5" stroke-linecap="round" stroke-linejoin="round"/>
<path id="Vector_2" d="M1 14.8889C1 16.2778 1.83333 19.0556 5.16667 19.0556C8.5 19.0556 9.33333 16.2778 9.33333 14.8889C9.33333 16.2778 10.1667 19.0556 13.5 19.0556C16.8333 19.0556 17.6667 16.2778 17.6667 14.8889C17.6667 16.2778 18.5 19.0556 21.8333 19.0556C25.1667 19.0556 26 16.2778 26 14.8889" stroke="#373737" stroke-width="1.5" stroke-linecap="round" stroke-linejoin="round"/>
</g>
</svg>
