<svg width="16" height="16" viewBox="0 0 16 16" fill="none" xmlns="http://www.w3.org/2000/svg">
<path id="Vector" d="M0.613265 14.0247L6.51295 8.13403L0.613265 2.24339C0.442492 2.06685 0.347997 1.8304 0.350133 1.58497C0.352269 1.33953 0.450865 1.10476 0.624685 0.931205C0.798505 0.757651 1.03364 0.659206 1.27945 0.657073C1.52526 0.654941 1.76208 0.749291 1.93889 0.919802L7.83858 6.81044L13.7383 0.919802C13.8247 0.830399 13.9282 0.759087 14.0426 0.710029C14.157 0.660971 14.28 0.635149 14.4045 0.634069C14.5289 0.632989 14.6524 0.656672 14.7676 0.703738C14.8828 0.750804 14.9875 0.82031 15.0755 0.908199C15.1635 0.996089 15.2331 1.1006 15.2803 1.21564C15.3274 1.33068 15.3511 1.45394 15.3501 1.57823C15.349 1.70252 15.3231 1.82535 15.274 1.93955C15.2249 2.05376 15.1534 2.15704 15.0639 2.24339L9.1642 8.13403L15.0639 14.0247C15.1534 14.111 15.2249 14.2143 15.274 14.3285C15.3231 14.4427 15.349 14.5655 15.3501 14.6898C15.3511 14.8141 15.3274 14.9374 15.2803 15.0524C15.2331 15.1675 15.1635 15.272 15.0755 15.3599C14.9875 15.4478 14.8828 15.5173 14.7676 15.5643C14.6524 15.6114 14.5289 15.6351 14.4045 15.634C14.28 15.6329 14.157 15.6071 14.0426 15.558C13.9282 15.509 13.8247 15.4377 13.7383 15.3483L7.83858 9.45762L1.93889 15.3483C1.76208 15.5188 1.52526 15.6131 1.27945 15.611C1.03364 15.6089 0.798505 15.5104 0.624685 15.3369C0.450865 15.1633 0.352269 14.9285 0.350133 14.6831C0.347997 14.4377 0.442492 14.2012 0.613265 14.0247Z" fill="#757575"/>
</svg>
