<svg width="25" height="26" viewBox="0 0 25 26" fill="none" xmlns="http://www.w3.org/2000/svg">
<path d="M12.4999 8.7417C9.8974 8.7417 7.76807 10.871 7.76807 13.4736C7.76807 16.0761 9.8974 18.2054 12.4999 18.2054C15.1025 18.2054 17.2318 16.0761 17.2318 13.4736C17.2318 10.871 15.1025 8.7417 12.4999 8.7417ZM12.4999 16.6281C10.7649 16.6281 9.34535 15.2086 9.34535 13.4736C9.34535 11.7385 10.7649 10.319 12.4999 10.319C14.2349 10.319 15.6545 11.7385 15.6545 13.4736C15.6545 15.2086 14.2349 16.6281 12.4999 16.6281Z" fill="#373737"/>
<path d="M12.5002 20.3345C9.56248 20.3345 6.74308 21.5569 4.73204 23.7059L4.19971 24.2777L5.34324 25.3621L5.87557 24.7903C7.61059 22.937 9.9568 21.9118 12.5002 21.9118C15.0436 21.9118 17.3898 22.937 19.1248 24.7903L19.6571 25.3621L20.8007 24.2777L20.2683 23.7059C18.2573 21.5766 15.4379 20.3345 12.5002 20.3345Z" fill="#373737"/>
<path d="M19.0063 9.90479V11.4821C20.8597 11.4821 22.575 12.2313 23.8565 13.5917L25 12.5073C23.4622 10.8512 21.2737 9.90479 19.0063 9.90479Z" fill="#373737"/>
<path d="M22.7723 4.40396C22.7723 2.33377 21.0767 0.638184 19.0065 0.638184C16.9363 0.638184 15.2407 2.33377 15.2407 4.40396C15.2407 6.47415 16.9363 8.16973 19.0065 8.16973C21.0767 8.16973 22.7723 6.47415 22.7723 4.40396ZM16.818 4.40396C16.818 3.20128 17.8038 2.21547 19.0065 2.21547C20.2092 2.21547 21.195 3.20128 21.195 4.40396C21.195 5.60664 20.2092 6.59244 19.0065 6.59244C17.8038 6.59244 16.818 5.60664 16.818 4.40396Z" fill="#373737"/>
<path d="M5.99369 9.90479C3.72634 9.90479 1.53785 10.8512 0 12.5073L1.14353 13.5917C2.40536 12.2313 4.14038 11.4821 5.99369 11.4821V9.90479Z" fill="#373737"/>
<path d="M9.75957 4.40396C9.75957 2.33377 8.06399 0.638184 5.9938 0.638184C3.92361 0.638184 2.22803 2.33377 2.22803 4.40396C2.22803 6.47415 3.92361 8.16973 5.9938 8.16973C8.06399 8.16973 9.75957 6.47415 9.75957 4.40396ZM5.9938 6.59244C4.79112 6.59244 3.80531 5.60664 3.80531 4.40396C3.80531 3.20128 4.79112 2.21547 5.9938 2.21547C7.19648 2.21547 8.18229 3.20128 8.18229 4.40396C8.18229 5.60664 7.19648 6.59244 5.9938 6.59244Z" fill="#373737"/>
</svg>
