<svg width="15" height="16" viewBox="0 0 15 16" fill="none" xmlns="http://www.w3.org/2000/svg">
<path id="Vector" d="M15 4.42946C15.0006 4.33075 14.9816 4.23291 14.9443 4.14153C14.907 4.05015 14.852 3.96704 14.7825 3.89696L11.6025 0.716963C11.5324 0.647452 11.4493 0.592458 11.3579 0.555135C11.2665 0.517811 11.1687 0.498893 11.07 0.499463C10.9713 0.498893 10.8734 0.517811 10.7821 0.555135C10.6907 0.592458 10.6076 0.647452 10.5375 0.716963L8.415 2.83946L0.217512 11.0369C0.148001 11.107 0.0930074 11.1901 0.055684 11.2815C0.0183606 11.3729 -0.000558133 11.4707 1.25357e-05 11.5694V14.7494C1.25357e-05 14.9484 0.07903 15.1391 0.219682 15.2798C0.360334 15.4204 0.551099 15.4994 0.750011 15.4994H3.93001C4.03495 15.5051 4.13993 15.4887 4.23812 15.4513C4.33631 15.4138 4.42554 15.3561 4.5 15.2819L12.6525 7.08445L14.7825 4.99946C14.8509 4.92677 14.9067 4.84311 14.9475 4.75196C14.9547 4.69217 14.9547 4.63174 14.9475 4.57196C14.951 4.53704 14.951 4.50187 14.9475 4.46696L15 4.42946ZM3.62251 13.9994H1.50001V11.8769L8.9475 4.42946L11.07 6.55195L3.62251 13.9994ZM12.1275 5.49445L10.005 3.37196L11.07 2.31446L13.185 4.42946L12.1275 5.49445Z" fill="#373737"/>
</svg>
