<svg width="19" height="27" viewBox="0 0 19 27" fill="none" xmlns="http://www.w3.org/2000/svg">
<path id="Vector" d="M18.3999 9.44994C18.3999 7.70828 17.8946 6.00404 16.9451 4.5439C15.9957 3.08376 14.6431 1.93047 13.0512 1.22388C11.4593 0.517298 9.69656 0.287786 7.97681 0.563179C6.25706 0.838573 4.65416 1.60704 3.36251 2.77538C2.07087 3.94372 1.14596 5.46174 0.699977 7.14533C0.253991 8.82892 0.306085 10.6058 0.849941 12.2603C1.3938 13.9149 2.40605 15.3761 3.76393 16.4668C5.12181 17.5574 6.76697 18.2307 8.4999 18.4048V21.1499H4.8999C4.66121 21.1499 4.43229 21.2448 4.26351 21.4135C4.09472 21.5823 3.9999 21.8112 3.9999 22.0499C3.9999 22.2886 4.09472 22.5176 4.26351 22.6863C4.43229 22.8551 4.66121 22.9499 4.8999 22.9499H8.4999V25.6499C8.4999 25.8886 8.59472 26.1176 8.76351 26.2863C8.93229 26.4551 9.16121 26.5499 9.3999 26.5499C9.6386 26.5499 9.86752 26.4551 10.0363 26.2863C10.2051 26.1176 10.2999 25.8886 10.2999 25.6499V22.9499H13.8999C14.1386 22.9499 14.3675 22.8551 14.5363 22.6863C14.7051 22.5176 14.7999 22.2886 14.7999 22.0499C14.7999 21.8112 14.7051 21.5823 14.5363 21.4135C14.3675 21.2448 14.1386 21.1499 13.8999 21.1499H10.2999V18.4048C12.5188 18.179 14.5751 17.1385 16.0713 15.4844C17.5674 13.8304 18.3971 11.6803 18.3999 9.44994ZM9.3999 16.6499C7.97588 16.6499 6.58383 16.2277 5.3998 15.4365C4.21576 14.6454 3.29292 13.5209 2.74797 12.2053C2.20302 10.8896 2.06044 9.44196 2.33825 8.04529C2.61606 6.64863 3.3018 5.36571 4.30873 4.35877C5.31567 3.35184 6.59859 2.6661 7.99525 2.38829C9.39192 2.11047 10.8396 2.25306 12.1552 2.79801C13.4709 3.34296 14.5953 4.2658 15.3865 5.44984C16.1776 6.63387 16.5999 8.02592 16.5999 9.44994C16.5977 11.3588 15.8385 13.1889 14.4887 14.5387C13.1389 15.8885 11.3088 16.6478 9.3999 16.6499Z" fill="#373737"/>
</svg>
