<svg width="25" height="25" viewBox="0 0 25 25" fill="none" xmlns="http://www.w3.org/2000/svg">
<rect width="25" height="25" rx="5" fill="#D14E4E"/>
<path d="M16.08 11.08C15.76 10.344 15.2693 9.768 14.608 9.352C13.9573 8.92533 13.1893 8.712 12.304 8.712C11.472 8.712 10.7253 8.904 10.064 9.288C9.40267 9.672 8.88 10.2213 8.496 10.936C8.112 11.64 7.92 12.4613 7.92 13.4C7.92 14.3387 8.112 15.1653 8.496 15.88C8.88 16.5947 9.40267 17.144 10.064 17.528C10.7253 17.912 11.472 18.104 12.304 18.104C13.0827 18.104 13.7813 17.9387 14.4 17.608C15.0293 17.2667 15.5307 16.7867 15.904 16.168C16.288 15.5387 16.5067 14.808 16.56 13.976H11.856V13.064H17.744V13.88C17.6907 14.8613 17.424 15.752 16.944 16.552C16.464 17.3413 15.8187 17.9653 15.008 18.424C14.208 18.8827 13.3067 19.112 12.304 19.112C11.2693 19.112 10.3307 18.872 9.488 18.392C8.64533 17.9013 7.97867 17.224 7.488 16.36C7.008 15.4853 6.768 14.4987 6.768 13.4C6.768 12.3013 7.008 11.32 7.488 10.456C7.97867 9.58133 8.64533 8.904 9.488 8.424C10.3307 7.93333 11.2693 7.688 12.304 7.688C13.4987 7.688 14.544 7.98667 15.44 8.584C16.336 9.18133 16.9867 10.0133 17.392 11.08H16.08Z" fill="white"/>
</svg>
