<svg width="25" height="25" viewBox="0 0 25 25" fill="none" xmlns="http://www.w3.org/2000/svg">
<mask id="mask0_147_240" style="mask-type:luminance" maskUnits="userSpaceOnUse" x="2" y="1" width="22" height="23">
<path fill-rule="evenodd" clip-rule="evenodd" d="M2.0835 1.04187H23.4375V23.4429H2.0835V1.04187Z" fill="white"/>
</mask>
<g mask="url(#mask0_147_240)">
<path fill-rule="evenodd" clip-rule="evenodd" d="M14.2884 15.9284C15.5425 15.9284 16.5634 16.9419 16.5634 18.1878V21.3919C16.5634 21.6597 16.778 21.8742 17.053 21.8805H19.0384C20.603 21.8805 21.8748 20.6242 21.8748 19.0805V9.99299C21.8675 9.46174 21.6144 8.96174 21.18 8.62945L14.3123 3.15237C13.3905 2.42216 12.1009 2.42216 11.1759 3.15445L4.35505 8.62737C3.904 8.97008 3.65088 9.47008 3.64567 10.0107V19.0805C3.64567 20.6242 4.91755 21.8805 6.48213 21.8805H8.48629C8.76859 21.8805 8.99775 21.6565 8.99775 21.3815C8.99775 21.3211 9.00505 21.2607 9.01755 21.2034V18.1878C9.01755 16.9492 10.0321 15.9367 11.2769 15.9284H14.2884ZM19.0383 23.443H17.0342C15.8863 23.4159 15.0008 22.5149 15.0008 21.3919V18.1878C15.0008 17.8034 14.681 17.4909 14.2883 17.4909H11.2821C10.8977 17.493 10.58 17.8065 10.58 18.1878V21.3815C10.58 21.4597 10.5696 21.5347 10.5477 21.6055C10.4352 22.6367 9.55396 23.443 8.48625 23.443H6.48209C4.05605 23.443 2.08313 21.4857 2.08313 19.0805V10.0034C2.09355 8.96799 2.57063 8.02007 3.39459 7.39611L10.2019 1.93257C11.7008 0.745073 13.7894 0.745073 15.2852 1.93049L22.1415 7.39924C22.9467 8.01278 23.4238 8.95861 23.4373 9.98153V19.0805C23.4373 21.4857 21.4644 23.443 19.0383 23.443V23.443Z" fill="#373737"/>
</g>
</svg>
