<svg width="23" height="23" viewBox="0 0 23 23" fill="none" xmlns="http://www.w3.org/2000/svg">
<path id="Vector" d="M22.1393 1.64862C22.1381 1.6363 22.1357 1.62434 22.134 1.61218C22.1318 1.59636 22.1299 1.5805 22.1268 1.56479C22.124 1.55061 22.1201 1.53681 22.1166 1.52284C22.1132 1.50941 22.1102 1.49592 22.1062 1.48259C22.1021 1.46889 22.0969 1.45567 22.0921 1.44224C22.0873 1.42896 22.083 1.41558 22.0776 1.40252C22.0724 1.39003 22.0663 1.37808 22.0605 1.36586C22.0542 1.35243 22.0482 1.33889 22.0412 1.32572C22.0349 1.31403 22.0278 1.30297 22.021 1.2916C22.0133 1.27869 22.006 1.26557 21.9976 1.25299C21.9894 1.24071 21.9802 1.22913 21.9714 1.21734C21.9633 1.20649 21.9557 1.19539 21.9471 1.18481C21.9306 1.16477 21.9131 1.14562 21.8949 1.1271C21.8931 1.12525 21.8916 1.12324 21.8898 1.12144C21.8877 1.11939 21.8855 1.11769 21.8834 1.11568C21.8651 1.09775 21.8462 1.0804 21.8263 1.06411C21.8165 1.05602 21.806 1.04893 21.7959 1.04136C21.7834 1.03195 21.7711 1.02227 21.758 1.01354C21.7464 1.00571 21.7343 0.998995 21.7223 0.991855C21.71 0.984398 21.6979 0.976676 21.6851 0.969853C21.6733 0.963558 21.6611 0.958217 21.6491 0.952504C21.6355 0.945998 21.622 0.939281 21.608 0.933463C21.5968 0.928861 21.5854 0.925159 21.574 0.921034C21.5587 0.915428 21.5435 0.909609 21.5278 0.904849C21.5172 0.901623 21.5064 0.899401 21.4957 0.896598C21.479 0.892265 21.4624 0.887659 21.4454 0.884327C21.4342 0.882105 21.4228 0.880889 21.4115 0.879144C21.3949 0.876552 21.3785 0.87359 21.3616 0.87195C21.3444 0.870258 21.3272 0.869993 21.3099 0.869306C21.2989 0.868945 21.2881 0.867676 21.277 0.867676H16.0776C15.8478 0.867676 15.6273 0.958976 15.4648 1.12149C15.3023 1.284 15.211 1.50442 15.211 1.73425C15.211 1.96408 15.3023 2.1845 15.4648 2.34701C15.6273 2.50953 15.8478 2.60083 16.0776 2.60083H19.1849L14.6291 7.15659C12.9077 5.74961 10.7115 5.05803 8.49451 5.22488C6.27756 5.39173 4.20953 6.40425 2.71813 8.05303C1.22674 9.7018 0.426069 11.8607 0.481722 14.0832C0.537376 16.3058 1.44509 18.4219 3.01714 19.994C4.58919 21.566 6.7053 22.4738 8.92783 22.5295C11.1504 22.5851 13.3093 21.7845 14.9581 20.2931C16.6069 18.8018 17.6194 16.7337 17.7863 14.5168C17.9532 12.2998 17.2616 10.1035 15.8547 8.38215L20.4105 3.82638V6.93371C20.4105 7.16354 20.5018 7.38395 20.6643 7.54647C20.8268 7.70898 21.0472 7.80028 21.277 7.80028C21.5069 7.80028 21.7273 7.70898 21.8898 7.54647C22.0523 7.38395 22.1436 7.16354 22.1436 6.93371V1.73452C22.1436 1.70585 22.1421 1.67718 22.1393 1.64862ZM14.0471 18.7684C13.0777 19.7368 11.843 20.3961 10.4991 20.663C9.15507 20.9298 7.76215 20.7922 6.49637 20.2675C5.23058 19.7429 4.14876 18.8547 3.38764 17.7154C2.62653 16.576 2.2203 15.2365 2.2203 13.8663C2.2203 12.4961 2.62653 11.1566 3.38764 10.0173C4.14876 8.87789 5.23058 7.98973 6.49637 7.46508C7.76215 6.94042 9.15507 6.80281 10.4991 7.06965C11.843 7.33649 13.0777 7.99579 14.0471 8.96421C15.3453 10.2653 16.0744 12.0283 16.0744 13.8663C16.0744 15.7043 15.3453 17.4673 14.0471 18.7684Z" fill="#373737"/>
</svg>
