<svg width="12" height="15" viewBox="0 0 12 15" fill="none" xmlns="http://www.w3.org/2000/svg">
<path id="Vector" d="M9.87519 5.71724H9.46023V4.13376C9.46023 2.22951 8.08257 0.737732 6.12521 0.737732C4.15996 0.737732 2.82089 2.26105 2.82089 4.13376V5.71724H2.40593C1.49053 5.71724 0.746094 6.46168 0.746094 7.37708V12.3566C0.746094 13.272 1.49053 14.0164 2.40593 14.0164H9.87519C10.7906 14.0164 11.535 13.272 11.535 12.3566V7.37708C11.535 6.46168 10.7906 5.71724 9.87519 5.71724ZM3.65081 4.13376C3.65081 2.71916 4.61766 1.56765 6.12521 1.56765C7.6174 1.56765 8.63031 2.69468 8.63031 4.13376V5.71724H3.65081V4.13376ZM10.7051 12.3566C10.7051 12.8139 10.3325 13.1865 9.87519 13.1865H2.40593C1.94823 13.1865 1.57601 12.8139 1.57601 12.3566V7.37708C1.57601 6.91979 1.94823 6.54716 2.40593 6.54716H9.87519C10.3325 6.54716 10.7051 6.91979 10.7051 7.37708V12.3566ZM6.14056 8.20699C5.68245 8.20699 5.31064 8.57838 5.31064 9.03691C5.31064 9.34315 5.4787 9.60789 5.7256 9.75189V11.1117C5.7256 11.3408 5.9115 11.5267 6.14056 11.5267C6.36962 11.5267 6.55552 11.3408 6.55552 11.1117V9.75189C6.80242 9.60831 6.97048 9.34315 6.97048 9.03691C6.97048 8.57838 6.59909 8.20699 6.14056 8.20699Z" fill="#373737"/>
</svg>
