<svg width="20" height="20" viewBox="0 0 20 20" fill="none" xmlns="http://www.w3.org/2000/svg">
<path fill-rule="evenodd" clip-rule="evenodd" d="M0 4.5C0 2.01472 1.91878 0 4.28572 0H9.52382C11.6277 0 13.3333 1.79086 13.3333 4V5C13.3333 5.55228 12.907 6 12.381 6C11.855 6 11.4286 5.55228 11.4286 5V4C11.4286 2.89543 10.5758 2 9.52382 2H4.28572C2.97076 2 1.90476 3.11929 1.90476 4.5V15.5C1.90476 16.8807 2.97076 18 4.28572 18H9.52382C10.5758 18 11.4286 17.1046 11.4286 16V15C11.4286 14.4477 11.855 14 12.381 14C12.907 14 13.3333 14.4477 13.3333 15V16C13.3333 18.2091 11.6277 20 9.52382 20H4.28572C1.91878 20 0 17.9853 0 15.5V4.5ZM15.5171 6.29289C15.889 5.90237 16.492 5.90237 16.8639 6.29289L19.7211 9.2929C20.093 9.6834 20.093 10.3166 19.7211 10.7071L16.8639 13.7071C16.492 14.0976 15.889 14.0976 15.5171 13.7071C15.1452 13.3166 15.1452 12.6834 15.5171 12.2929L16.7484 11H8.57144C8.04544 11 7.61906 10.5523 7.61906 10C7.61906 9.4477 8.04544 9 8.57144 9H16.7484L15.5171 7.70711C15.1452 7.31658 15.1452 6.68342 15.5171 6.29289Z" fill="#373737"/>
</svg>
