<svg width="25" height="25" viewBox="0 0 25 25" fill="none" xmlns="http://www.w3.org/2000/svg">
<rect width="25" height="25" rx="5" fill="#53C866"/>
<path d="M11.672 19.112C10.936 19.112 10.2853 18.984 9.72 18.728C9.16533 18.472 8.728 18.1147 8.408 17.656C8.088 17.1973 7.91733 16.6853 7.896 16.12H9.08C9.13333 16.664 9.37333 17.144 9.8 17.56C10.2267 17.9653 10.8507 18.168 11.672 18.168C12.4293 18.168 13.0267 17.976 13.464 17.592C13.912 17.1973 14.136 16.7013 14.136 16.104C14.136 15.624 14.0133 15.24 13.768 14.952C13.5227 14.6533 13.2187 14.4347 12.856 14.296C12.4933 14.1467 11.992 13.9867 11.352 13.816C10.6053 13.6133 10.0133 13.416 9.576 13.224C9.13867 13.032 8.76533 12.7333 8.456 12.328C8.14667 11.9227 7.992 11.3733 7.992 10.68C7.992 10.104 8.14133 9.592 8.44 9.144C8.73867 8.68533 9.16 8.328 9.704 8.072C10.248 7.816 10.872 7.688 11.576 7.688C12.6107 7.688 13.4427 7.944 14.072 8.456C14.712 8.95733 15.08 9.608 15.176 10.408H13.96C13.8853 9.94933 13.6347 9.544 13.208 9.192C12.7813 8.82933 12.2053 8.648 11.48 8.648C10.808 8.648 10.248 8.82933 9.8 9.192C9.352 9.544 9.128 10.0293 9.128 10.648C9.128 11.1173 9.25067 11.496 9.496 11.784C9.74133 12.072 10.0453 12.2907 10.408 12.44C10.7813 12.5893 11.2827 12.7493 11.912 12.92C12.6373 13.1227 13.224 13.3253 13.672 13.528C14.12 13.72 14.4987 14.0187 14.808 14.424C15.1173 14.8293 15.272 15.3733 15.272 16.056C15.272 16.5787 15.1333 17.0747 14.856 17.544C14.5787 18.0133 14.168 18.392 13.624 18.68C13.08 18.968 12.4293 19.112 11.672 19.112Z" fill="white"/>
</svg>
