<svg width="25" height="26" viewBox="0 0 25 26" fill="none" xmlns="http://www.w3.org/2000/svg">
<path fill-rule="evenodd" clip-rule="evenodd" d="M17.2679 23.8007H8.0762C4.49183 23.8007 2.0835 21.2851 2.0835 17.5414V8.88094C2.0835 5.13719 4.49183 2.62157 8.0762 2.62157H11.971C12.4022 2.62157 12.7522 2.97157 12.7522 3.40282C12.7522 3.83407 12.4022 4.18407 11.971 4.18407H8.0762C5.38454 4.18407 3.646 6.02782 3.646 8.88094V17.5414C3.646 20.3945 5.38454 22.2382 8.0762 22.2382H17.2679C19.9595 22.2382 21.6991 20.3945 21.6991 17.5414V13.3455C21.6991 12.9143 22.0491 12.5643 22.4804 12.5643C22.9116 12.5643 23.2616 12.9143 23.2616 13.3455V17.5414C23.2616 21.2851 20.8522 23.8007 17.2679 23.8007Z" fill="#373737"/>
<path fill-rule="evenodd" clip-rule="evenodd" d="M9.23735 16.5711H12.3384C12.7342 16.5711 13.1051 16.418 13.3853 16.1378L21.2071 8.31594C21.528 7.9951 21.7051 7.56802 21.7051 7.11385C21.7051 6.65864 21.528 6.23052 21.2071 5.90969L19.9394 4.64198C19.2759 3.98052 18.1967 3.98052 17.5321 4.64198L9.74777 12.4264C9.47797 12.6961 9.32485 13.0545 9.31547 13.4347L9.23735 16.5711ZM12.3384 18.1336H8.43627C8.22586 18.1336 8.02377 18.0482 7.8769 17.8972C7.73002 17.7472 7.64982 17.5441 7.65502 17.3326L7.75294 13.3961C7.77273 12.6128 8.08836 11.8764 8.64252 11.3211H8.64357L16.4279 3.53677C17.7009 2.26594 19.7706 2.26594 21.0436 3.53677L22.3113 4.80448C22.929 5.42115 23.2686 6.24094 23.2675 7.11386C23.2675 7.98677 22.9279 8.80552 22.3113 9.42115L14.4894 17.243C13.9154 17.817 13.1509 18.1336 12.3384 18.1336Z" fill="#373737"/>
<path fill-rule="evenodd" clip-rule="evenodd" d="M20.5531 10.8298C20.3531 10.8298 20.1531 10.7538 20.001 10.6006L15.2448 5.84438C14.9396 5.53917 14.9396 5.04438 15.2448 4.73917C15.55 4.43396 16.0437 4.43396 16.3489 4.73917L21.1052 9.49646C21.4104 9.80167 21.4104 10.2954 21.1052 10.6006C20.9531 10.7538 20.7531 10.8298 20.5531 10.8298Z" fill="#373737"/>
</svg>
