<svg width="25" height="25" viewBox="0 0 25 25" fill="none" xmlns="http://www.w3.org/2000/svg">
<mask id="mask0_106_618" style="mask-type:luminance" maskUnits="userSpaceOnUse" x="3" y="1" width="20" height="19">
<path fill-rule="evenodd" clip-rule="evenodd" d="M3.125 1.04167H22.3926V19.1125H3.125V1.04167Z" fill="white"/>
</mask>
<g mask="url(#mask0_106_618)">
<path fill-rule="evenodd" clip-rule="evenodd" d="M12.7575 2.60417C9.11686 2.60417 6.57936 5.45625 6.57936 8.01563C6.57936 10.1813 5.97832 11.1823 5.44707 12.0656C5.02103 12.775 4.68457 13.3354 4.68457 14.5531C4.85853 16.5177 6.1554 17.55 12.7575 17.55C19.3231 17.55 20.6606 16.4719 20.8335 14.4854C20.8304 13.3354 20.4939 12.775 20.0679 12.0656C19.5366 11.1823 18.9356 10.1813 18.9356 8.01563C18.9356 5.45625 16.3981 2.60417 12.7575 2.60417ZM12.7573 19.1125C7.88647 19.1125 3.48439 18.7688 3.12501 14.6198C3.12189 12.9031 3.64585 12.0302 4.10835 11.2615C4.57606 10.4823 5.01668 9.74792 5.01668 8.01563C5.01668 4.64792 8.1271 1.04167 12.7573 1.04167C17.3875 1.04167 20.4979 4.64792 20.4979 8.01563C20.4979 9.74792 20.9386 10.4823 21.4063 11.2615C21.8688 12.0302 22.3927 12.9031 22.3927 14.5531C22.0292 18.7688 17.6281 19.1125 12.7573 19.1125Z" fill="#373737"/>
</g>
<path fill-rule="evenodd" clip-rule="evenodd" d="M12.7066 23.4375H12.7045C11.5368 23.4365 10.4316 22.9219 9.59302 21.9875C9.30448 21.6677 9.33052 21.1729 9.65135 20.8854C9.97219 20.5958 10.4659 20.6219 10.7545 20.9438C11.2941 21.5448 11.9868 21.875 12.7055 21.875H12.7066C13.4284 21.875 14.1243 21.5448 14.6649 20.9427C14.9545 20.6229 15.4482 20.5969 15.768 20.8854C16.0889 21.174 16.1149 21.6688 15.8264 21.9885C14.9847 22.9229 13.8774 23.4375 12.7066 23.4375Z" fill="#373737"/>
</svg>
