<svg width="25" height="26" viewBox="0 0 25 26" fill="none" xmlns="http://www.w3.org/2000/svg">
<path d="M17.5411 6.53796C17.9367 6.53796 18.2635 6.83187 18.3153 7.2132L18.3224 7.31921V21.5044C18.3224 21.9359 17.9726 22.2856 17.5411 22.2856C17.1456 22.2856 16.8188 21.9917 16.767 21.6104L16.7599 21.5044V7.31921C16.7599 6.88774 17.1097 6.53796 17.5411 6.53796Z" fill="#373737"/>
<path d="M21.235 16.6865C21.5394 16.3807 22.0341 16.3795 22.3399 16.6839C22.6179 16.9606 22.6441 17.3946 22.4178 17.701L22.3424 17.7888L18.0947 22.0561C17.8171 22.335 17.3814 22.3604 17.0751 22.1322L16.9873 22.0561L12.7396 17.7888C12.4352 17.483 12.4364 16.9883 12.7422 16.6839C13.0202 16.4072 13.4543 16.383 13.7596 16.6106L13.847 16.6865L17.5406 20.3969L21.235 16.6865Z" fill="#373737"/>
<path d="M7.1991 3.71135C7.59461 3.71135 7.92148 4.00526 7.97321 4.38659L7.98035 4.4926V18.6778C7.98035 19.1093 7.63057 19.459 7.1991 19.459C6.80358 19.459 6.47671 19.1651 6.42498 18.7838L6.41785 18.6778V4.4926C6.41785 4.06113 6.76762 3.71135 7.1991 3.71135Z" fill="#373737"/>
<path d="M6.6454 3.94087C6.92302 3.66196 7.3587 3.6366 7.66506 3.8648L7.7528 3.94087L12.0005 8.20823C12.3049 8.51403 12.3037 9.00869 11.9979 9.31308C11.7199 9.5898 11.2859 9.61401 10.9805 9.38638L10.8931 9.31053L7.19887 5.59896L3.50512 9.31053C3.2284 9.58853 2.79443 9.61475 2.48806 9.38852L2.40027 9.31308C2.12227 9.03636 2.09605 8.6024 2.32227 8.29603L2.39771 8.20823L6.6454 3.94087Z" fill="#373737"/>
</svg>
