<svg width="25" height="25" viewBox="0 0 25 25" fill="none" xmlns="http://www.w3.org/2000/svg">
<mask id="mask0_106_635" style="mask-type:luminance" maskUnits="userSpaceOnUse" x="2" y="3" width="21" height="21">
<path fill-rule="evenodd" clip-rule="evenodd" d="M2.08325 3.12543H22.3947V23.4369H2.08325V3.12543Z" fill="white"/>
</mask>
<g mask="url(#mask0_106_635)">
<path fill-rule="evenodd" clip-rule="evenodd" d="M11.2551 15.4352L15.0644 21.6154C15.2311 21.8863 15.4915 21.8831 15.5967 21.8686C15.7019 21.854 15.9551 21.7894 16.0467 21.4821L20.8103 5.39356C20.8936 5.10918 20.7405 4.91543 20.6717 4.84668C20.6051 4.77793 20.4144 4.63106 20.1384 4.70918L4.03839 9.42377C3.73318 9.51335 3.66651 9.7696 3.65193 9.87481C3.63735 9.9821 3.63318 10.2477 3.90297 10.4175L10.154 14.3269L15.6769 8.74564C15.9801 8.43939 16.4748 8.43627 16.7821 8.73939C17.0894 9.04252 17.0915 9.53835 16.7884 9.8446L11.2551 15.4352ZM15.5155 23.4373C14.7905 23.4373 14.1259 23.0686 13.7342 22.4352L9.69569 15.8821L3.07486 11.7415C2.36132 11.2946 1.9884 10.4988 2.10403 9.66231C2.21861 8.82586 2.79257 8.16127 3.59882 7.92481L19.6988 3.21023C20.4394 2.99356 21.2332 3.19877 21.779 3.74252C22.3249 4.29148 22.528 5.09356 22.3071 5.83731L17.5436 21.9248C17.3051 22.7342 16.6384 23.3061 15.804 23.4175C15.7061 23.43 15.6113 23.4373 15.5155 23.4373Z" fill="white"/>
</g>
</svg>
